<?xml version="1.0" standalone="no"?>
<!DOCTYPE svg PUBLIC "-//W3C//DTD SVG 20010904//EN"
 "http://www.w3.org/TR/2001/REC-SVG-20010904/DTD/svg10.dtd">
<svg version="1.0" xmlns="http://www.w3.org/2000/svg"
 width="591.000000pt" height="272.000000pt" viewBox="0 0 591.000000 272.000000"
 preserveAspectRatio="xMidYMid meet">
<metadata>
Created by potrace 1.16, written by Peter Selinger 2001-2019
</metadata>
<g transform="translate(0.000000,272.000000) scale(0.100000,-0.100000)"
fill="#000000" stroke="none">
<path d="M2906 2451 c-9 -10 -20 -35 -23 -55 -5 -30 -10 -36 -26 -34 -15 2
-23 -5 -29 -27 -11 -41 -3 -89 43 -234 25 -78 36 -128 30 -134 -13 -13 -28 18
-73 158 -43 133 -76 190 -124 213 -42 20 -64 10 -64 -28 0 -29 -13 -40 -25
-20 -12 19 -110 12 -138 -10 -36 -29 -53 -83 -36 -122 12 -29 13 -30 28 -10 9
11 26 25 38 31 31 16 109 14 144 -5 74 -38 166 -149 215 -260 23 -53 24 -54
67 -54 l42 0 32 68 c43 93 112 184 170 223 39 27 60 34 110 37 58 4 64 2 93
-26 28 -29 31 -29 40 -12 25 47 0 119 -49 140 -30 12 -101 10 -133 -4 -15 -7
-18 -3 -18 29 0 37 -1 37 -32 31 -67 -13 -101 -65 -157 -238 -23 -69 -48 -132
-56 -138 -25 -21 -19 19 21 137 40 120 54 223 34 248 -9 11 -16 12 -25 5 -10
-8 -14 -2 -20 26 -8 43 -32 84 -50 84 -6 0 -20 -8 -29 -19z"/>
<path d="M2402 2062 c-96 -35 -133 -87 -134 -191 -1 -75 18 -120 59 -142 33
-18 38 -5 11 31 -17 23 -23 44 -22 78 1 88 53 144 144 158 53 8 45 -7 -13 -26
-44 -14 -70 -48 -65 -87 3 -25 7 -28 38 -27 19 1 50 4 68 9 28 7 32 5 32 -13
0 -12 5 -24 10 -27 20 -12 70 7 97 36 16 16 32 29 38 29 32 0 90 -25 130 -55
50 -39 52 -38 29 28 -51 150 -270 253 -422 199z"/>
<path d="M3287 2070 c-102 -26 -203 -102 -235 -178 -40 -96 -40 -98 15 -59 26
19 67 41 91 48 42 12 43 12 76 -20 44 -43 96 -48 106 -11 4 15 12 23 21 21 8
-2 30 -9 50 -14 51 -15 69 -5 69 37 0 39 -31 70 -80 81 -40 9 -48 25 -13 25
39 0 112 -39 137 -73 30 -41 29 -131 -2 -174 -26 -36 -13 -45 25 -18 58 40 68
181 18 256 -44 67 -176 104 -278 79z"/>
<path d="M398 1733 c-29 -7 -22 -49 12 -73 28 -20 30 -26 30 -83 0 -135 -43
-304 -96 -382 -57 -83 -52 -88 69 -83 56 2 113 10 127 18 30 15 70 50 70 62 0
4 -40 8 -90 8 -104 0 -103 -1 -69 96 35 102 49 181 54 301 4 78 2 120 -6 129
-11 13 -64 17 -101 7z"/>
<path d="M4223 1671 c-51 -37 -87 -109 -87 -172 0 -40 7 -56 41 -101 60 -78
66 -94 58 -146 -5 -35 -16 -56 -46 -85 -37 -37 -52 -77 -29 -77 39 0 96 52
129 117 40 80 29 119 -68 249 -33 45 -31 102 3 129 14 11 37 29 51 40 13 11
27 32 31 48 5 24 3 27 -18 27 -14 0 -43 -13 -65 -29z"/>
<path d="M4915 1664 c-48 -16 -70 -41 -54 -61 6 -7 22 -13 35 -13 31 0 39 -41
38 -185 -1 -140 -20 -203 -74 -246 -66 -53 -54 -92 18 -55 60 31 116 128 128
222 7 61 5 60 140 70 112 8 114 6 114 -119 0 -74 3 -86 23 -105 27 -26 50 -28
67 -7 10 12 8 22 -9 55 -19 36 -21 58 -21 186 l0 146 30 35 c42 48 40 67 -6
60 -45 -8 -74 -33 -74 -64 0 -13 -6 -38 -14 -57 -19 -45 -62 -61 -166 -61
l-85 0 -6 85 c-9 126 -17 137 -84 114z"/>
<path d="M781 1634 c-81 -41 -87 -55 -71 -176 14 -103 14 -106 -27 -310 -5
-26 -3 -28 30 -28 49 0 139 35 167 65 31 33 20 41 -34 25 -60 -17 -69 -9 -61
54 10 69 18 82 62 97 46 14 63 27 63 45 0 10 -15 14 -54 14 -30 0 -58 5 -61
10 -4 6 -9 34 -12 63 -6 59 6 76 69 96 42 14 63 34 54 56 -9 23 -66 18 -125
-11z"/>
<path d="M2521 1639 c-6 -13 -20 -60 -31 -104 -52 -196 -103 -328 -143 -373
-14 -15 -17 -26 -11 -32 7 -7 61 15 167 69 l157 81 73 -74 c76 -78 117 -97
157 -76 35 19 21 50 -40 93 -47 32 -73 65 -172 218 -65 98 -118 183 -118 188
0 5 -7 14 -15 21 -12 10 -16 8 -24 -11z m56 -201 c28 -30 63 -90 63 -106 0
-14 -65 -46 -117 -57 l-33 -7 0 47 c0 59 35 145 59 145 4 0 17 -10 28 -22z"/>
<path d="M3062 1647 c-7 -7 -12 -89 -14 -204 l-3 -192 -32 -33 c-40 -41 -44
-78 -10 -78 24 0 66 38 86 77 7 13 11 83 11 182 l0 161 29 0 c43 0 61 -10 72
-37 11 -29 -13 -88 -42 -104 -11 -5 -19 -20 -19 -33 0 -32 72 -140 138 -209
49 -49 61 -57 94 -57 21 0 38 4 38 10 0 5 -19 29 -42 52 -53 55 -121 147 -137
186 -12 28 -11 34 15 67 54 71 30 178 -46 209 -48 19 -123 21 -138 3z"/>
<path d="M3665 1603 c-73 -265 -123 -402 -162 -446 -11 -11 -13 -21 -7 -27 7
-7 43 8 104 41 52 28 123 63 157 79 l62 28 49 -53 c90 -98 150 -126 187 -85
18 20 18 21 -6 46 -13 14 -39 35 -57 46 -32 20 -188 241 -262 371 -17 31 -36
57 -41 57 -4 0 -16 -26 -24 -57z m57 -155 c27 -21 68 -89 68 -113 0 -17 -10
-26 -44 -39 -24 -9 -57 -18 -73 -19 -27 -2 -28 -1 -25 47 2 49 34 136 50 136
4 0 15 -6 24 -12z"/>
<path d="M5545 1641 c-47 -22 -86 -61 -86 -87 -1 -11 2 -68 6 -129 6 -86 4
-125 -9 -182 -24 -107 -22 -123 14 -123 66 0 180 55 180 87 0 12 -7 14 -32 8
-18 -4 -44 -8 -58 -9 -24 -1 -25 1 -22 49 4 54 23 93 50 101 57 19 72 28 72
45 0 16 -8 19 -54 19 -59 0 -59 0 -71 71 -9 51 6 73 70 99 45 18 55 27 55 46
0 21 -5 24 -37 24 -21 0 -56 -9 -78 -19z"/>
<path d="M4548 1619 c-47 -14 -105 -70 -132 -128 -41 -90 -22 -222 43 -295 71
-80 235 -70 265 17 14 39 3 42 -54 18 -61 -26 -107 -21 -152 17 -40 34 -58 79
-58 148 0 71 23 121 65 141 29 14 41 14 121 0 49 -8 91 -13 93 -11 3 3 0 16
-5 31 -18 52 -111 82 -186 62z"/>
<path d="M1444 1588 c-4 -6 -6 -39 -5 -72 4 -112 -38 -262 -99 -353 -20 -29
-20 -34 -6 -39 24 -9 87 3 104 20 12 11 12 20 2 48 -11 30 -9 45 14 121 15 48
31 87 36 87 5 0 34 -37 64 -83 86 -130 169 -197 246 -197 53 0 105 36 174 120
78 93 90 94 125 8 32 -79 35 -82 72 -91 39 -10 89 5 89 26 0 8 -17 26 -39 40
-71 47 -111 149 -111 284 0 115 -23 97 -75 -57 -58 -171 -108 -234 -196 -246
-82 -11 -153 56 -264 251 -77 135 -110 168 -131 133z"/>
<path d="M2856 884 c-40 -76 -82 -107 -157 -112 -32 -2 -66 -2 -74 2 -15 5
-14 9 4 32 28 35 26 69 -4 99 -28 29 -61 32 -93 9 -50 -35 -10 -164 62 -198
19 -9 58 -16 88 -16 97 0 162 57 194 167 22 75 14 82 -20 17z"/>
<path d="M2930 920 c0 -36 -56 -143 -95 -182 -43 -43 -92 -68 -146 -75 -33 -5
-39 -9 -39 -29 0 -36 34 -64 76 -64 34 0 36 -2 30 -25 -6 -24 -4 -25 33 -25
28 0 48 8 69 25 l30 25 21 -35 c11 -19 25 -35 31 -35 6 0 20 16 32 36 l21 35
26 -25 c20 -20 38 -26 69 -26 40 0 42 1 36 25 -6 23 -3 25 28 25 40 0 78 34
78 68 0 16 -6 22 -23 22 -46 0 -117 32 -157 72 -41 39 -100 146 -100 180 0 9
-4 20 -10 23 -5 3 -10 -4 -10 -15z"/>
<path d="M2991 905 c-1 -40 39 -123 75 -157 38 -35 74 -48 138 -48 65 0 110
27 143 85 28 50 29 85 2 119 -25 31 -57 33 -93 5 -30 -24 -36 -78 -10 -103 24
-25 8 -36 -52 -36 -83 0 -137 37 -182 125 l-21 40 0 -30z"/>
</g>
</svg>
